{"title":"Alvin and The Chipmunks 3 Chipwrecked 2011 Cam XviD Feel-Free","uid":6906743,"size":1062968191,"categoryP":"video","categoryS":"movies","magnet":"?xt=urn:btih:8023d6246db6f40e86f415af5747b4893103c19d&amp;dn=Alvin+and+The+Chipmunks+3+Chipwrecked+2011+Cam+XviD+Feel-Free&amp;tr=udp%3A%2F%2Ftracker.openbittorrent.com%3A80&amp;tr=udp%3A%2F%2Fopen.demonii.com%3A1337&amp;tr=udp%3A%2F%2Ftracker.coppersurfer.tk%3A6969&amp;tr=udp%3A%2F%2Fexodus.desync.com%3A6969","seeders":0,"leechers":1,"uploader":".BONE.","files":10,"time":1324629240,"description":"Genre:Animation | Comedy | Family\nLanguage:English\n &lt;a href=&quot;\nhttp://www.imdb.com/title/tt1615918/&quot; rel=&quot;nofollow&quot; target=&quot;_NEW&quot;&gt;\nhttp://www.imdb.com/title/tt1615918/&lt;/a&gt;\n\nSource:Unknown Thanks!\n\nFormat : AVI\nFormat/Info : Audio Video Interleave\nFile size : 1 012 MiB\nDuration : 1h 20mn\nOverall bit rate : 1 759 Kbps\n\nVideo\nID : 0\nFormat : MPEG-4 Visual\nFormat profile : Advanced Simple@L5\nFormat settings, BVOP : Yes\nFormat settings, QPel : No\nFormat settings, GMC : No warppoints\nFormat settings, Matrix : Default (H.263)\nCodec ID : XVID\nCodec ID/Hint : XviD\nDuration : 1h 20mn\nBit rate : 1 556 Kbps\nWidth : 624 pixels\nHeight : 336 pixels\nDisplay aspect ratio : 1.857\nFrame rate : 29.970 fps\nColor space : YUV\nChroma subsampling : 4:2:0\nBit depth : 8 bits\nScan type : Progressive\nBits/(Pixel*Frame) : 0.248\nStream size : 895 MiB (88%)\nWriting library : XviD 1.2.1 (UTC 2008-12-04)\n\nAudio\nID : 1\nFormat : AC-3\nFormat/Info : Audio Coding 3\nMode extension : CM (complete main)\nCodec ID : 2000\nDuration : 1h 20mn\nBit rate mode : Constant\nBit rate : 192 Kbps\nChannel(s) : 2 channels\nChannel positions : Front: L R\nSampling rate : 48.0 KHz\nBit depth : 16 bits\nStream size : 110 MiB (11%)\nAlignment : Aligned on interleaves\nInterleave, duration : 33 ms (1.00 video frame)\nInterleave, preload duration : 512 ms\n\n\nPlot:\nPlaying around while aboard a cruise ship, the Chipmunks and Chipettes accidentally go overboard and end up marooned in a tropical paradise. They discover their new turf is not as deserted as it seems\n &lt;a href=&quot;\nhttp://img440.imageshack.us/img440/2163/vlcsnap00002s.png&quot; rel=&quot;nofollow&quot; target=&quot;_NEW&quot;&gt;\nhttp://img440.imageshack.us/img440/2163/vlcsnap00002s.png&lt;/a&gt; &lt;a href=&quot;\nhttp://img843.imageshack.us/img843/9557/vlcsnap00003gc.png&quot; rel=&quot;nofollow&quot; target=&quot;_NEW&quot;&gt;\nhttp://img843.imageshack.us/img843/9557/vlcsnap00003gc.png&lt;/a&gt; &lt;a href=&quot;\nhttp://img263.imageshack.us/img263/3417/vlcsnap00004bw.png&quot; rel=&quot;nofollow&quot; target=&quot;_NEW&quot;&gt;\nhttp://img263.imageshack.us/img263/3417/vlcsnap00004bw.png&lt;/a&gt; &lt;a href=&quot;\nhttp://img72.imageshack.us/img72/9789/vlcsnap00005pq.png&quot; rel=&quot;nofollow&quot; target=&quot;_NEW&quot;&gt;\nhttp://img72.imageshack.us/img72/9789/vlcsnap00005pq.png&lt;/a&gt; &lt;a href=&quot;\nhttp://img805.imageshack.us/img805/3815/vlcsnap00006w.png&quot; rel=&quot;nofollow&quot; target=&quot;_NEW&quot;&gt;\nhttp://img805.imageshack.us/img805/3815/vlcsnap00006w.png&lt;/a&gt;\n","torrent":{"xt":"urn:btih:8023d6246db6f40e86f415af5747b4893103c19d","amp;dn":"Alvin+and+The+Chipmunks+3+Chipwrecked+2011+Cam+XviD+Feel-Free","amp;tr":["udp%3A%2F%2Ftracker.openbittorrent.com%3A80","udp%3A%2F%2Fopen.demonii.com%3A1337","udp%3A%2F%2Ftracker.coppersurfer.tk%3A6969","udp%3A%2F%2Fexodus.desync.com%3A6969"],"infoHash":"8023d6246db6f40e86f415af5747b4893103c19d","infoHashBuffer":{"type":"Buffer","data":[128,35,214,36,109,182,244,14,134,244,21,175,87,71,180,137,49,3,193,157]},"announce":[],"urlList":[]}}